# xmcd
#
# Track frame offsets:
#	150
#	22757
#	40776
#	58704
#	79429
#	100420
#	119452
#	134823
#	154222
#	168313
#	191906
#	205211
#	224615
#
# Disc length: 3197 seconds
#
# Revision: 0
# Processed by: cddbd v1.5.2PL0 Copyright (c) Steve Scherf et al.
# Submitted via: audiograbber 1.83.01
#
DISCID=c30c7b0d
DTITLE=Sas, Julian - Bound To Roll
DYEAR=2012
DGENRE=Blues
TTITLE0=Life On The Line
TTITLE1=Mercy
TTITLE2=Bound To Roll
TTITLE3=How Could I´ve Been So Blind
TTITLE4=Shadow Play
TTITLE5=Swamplands
TTITLE6=30 Days In The Hole
TTITLE7=The Blues Won´t Stay
TTITLE8=Tear It Up
TTITLE9=Burnin´ Brides
TTITLE10=Ain´t Backing Down
TTITLE11=Highway 61 Revisited
TTITLE12=Life On The Line (Radio Edit)
EXTD=
EXTT0=
EXTT1=
EXTT2=
EXTT3=
EXTT4=
EXTT5=
EXTT6=
EXTT7=
EXTT8=
EXTT9=
EXTT10=
EXTT11=
EXTT12=
PLAYORDER=
